<mxfile host="app.diagrams.net" modified="2024-03-20T07:46:59.134Z" agent="Mozilla/5.0 (Windows NT 10.0; Win64; x64) AppleWebKit/537.36 (KHTML, like Gecko) Chrome/122.0.0.0 Safari/537.36" etag="MLPJgLLFBJ5_WtiEzdS1" version="24.0.7" type="github">
  <diagram id="C5RBs43oDa-KdzZeNtuy" name="Page-1">
    <mxGraphModel dx="1185" dy="647" grid="1" gridSize="10" guides="1" tooltips="1" connect="1" arrows="1" fold="1" page="1" pageScale="1" pageWidth="827" pageHeight="1169" math="0" shadow="0">
      <root>
        <mxCell id="WIyWlLk6GJQsqaUBKTNV-0" />
        <mxCell id="WIyWlLk6GJQsqaUBKTNV-1" parent="WIyWlLk6GJQsqaUBKTNV-0" />
        <mxCell id="WIyWlLk6GJQsqaUBKTNV-3" value="Garage" style="rounded=1;whiteSpace=wrap;html=1;fontSize=12;glass=0;strokeWidth=1;shadow=0;" parent="WIyWlLk6GJQsqaUBKTNV-1" vertex="1">
          <mxGeometry x="310" y="230" width="140" height="70" as="geometry" />
        </mxCell>
        <mxCell id="9C-q0X9nKTrq2vJhem4q-1" value="Garage&lt;div&gt;Repistory&lt;/div&gt;" style="ellipse;whiteSpace=wrap;html=1;aspect=fixed;" vertex="1" parent="WIyWlLk6GJQsqaUBKTNV-1">
          <mxGeometry x="474.13" y="360" width="80" height="80" as="geometry" />
        </mxCell>
        <mxCell id="9C-q0X9nKTrq2vJhem4q-9" value="" style="shape=cube;whiteSpace=wrap;html=1;boundedLbl=1;backgroundOutline=1;darkOpacity=0.05;darkOpacity2=0.1;" vertex="1" parent="WIyWlLk6GJQsqaUBKTNV-1">
          <mxGeometry x="490" y="140" width="60" height="40" as="geometry" />
        </mxCell>
        <mxCell id="9C-q0X9nKTrq2vJhem4q-12" value="" style="shape=cube;whiteSpace=wrap;html=1;boundedLbl=1;backgroundOutline=1;darkOpacity=0.05;darkOpacity2=0.1;" vertex="1" parent="WIyWlLk6GJQsqaUBKTNV-1">
          <mxGeometry x="450" y="140" width="60" height="40" as="geometry" />
        </mxCell>
        <mxCell id="9C-q0X9nKTrq2vJhem4q-43" value="" style="rounded=0;orthogonalLoop=1;jettySize=auto;html=1;entryX=1.013;entryY=0.348;entryDx=0;entryDy=0;entryPerimeter=0;" edge="1" parent="WIyWlLk6GJQsqaUBKTNV-1" source="9C-q0X9nKTrq2vJhem4q-13" target="9C-q0X9nKTrq2vJhem4q-24">
          <mxGeometry relative="1" as="geometry" />
        </mxCell>
        <mxCell id="9C-q0X9nKTrq2vJhem4q-13" value="" style="shape=cube;whiteSpace=wrap;html=1;boundedLbl=1;backgroundOutline=1;darkOpacity=0.05;darkOpacity2=0.1;" vertex="1" parent="WIyWlLk6GJQsqaUBKTNV-1">
          <mxGeometry x="410" y="140" width="60" height="40" as="geometry" />
        </mxCell>
        <mxCell id="9C-q0X9nKTrq2vJhem4q-15" value="Parking spots" style="text;strokeColor=none;align=center;fillColor=none;html=1;verticalAlign=middle;whiteSpace=wrap;rounded=0;" vertex="1" parent="WIyWlLk6GJQsqaUBKTNV-1">
          <mxGeometry x="440" y="110" width="80" height="30" as="geometry" />
        </mxCell>
        <mxCell id="9C-q0X9nKTrq2vJhem4q-17" style="edgeStyle=orthogonalEdgeStyle;rounded=0;orthogonalLoop=1;jettySize=auto;html=1;entryX=0.669;entryY=1.096;entryDx=0;entryDy=0;entryPerimeter=0;" edge="1" parent="WIyWlLk6GJQsqaUBKTNV-1" source="WIyWlLk6GJQsqaUBKTNV-3" target="9C-q0X9nKTrq2vJhem4q-12">
          <mxGeometry relative="1" as="geometry" />
        </mxCell>
        <mxCell id="9C-q0X9nKTrq2vJhem4q-18" value="Has" style="text;strokeColor=none;align=center;fillColor=none;html=1;verticalAlign=middle;whiteSpace=wrap;rounded=0;" vertex="1" parent="WIyWlLk6GJQsqaUBKTNV-1">
          <mxGeometry x="410" y="200" width="60" height="30" as="geometry" />
        </mxCell>
        <mxCell id="9C-q0X9nKTrq2vJhem4q-22" value="CRUD" style="text;strokeColor=none;align=center;fillColor=none;html=1;verticalAlign=middle;whiteSpace=wrap;rounded=0;" vertex="1" parent="WIyWlLk6GJQsqaUBKTNV-1">
          <mxGeometry x="520" y="310" width="60" height="30" as="geometry" />
        </mxCell>
        <mxCell id="9C-q0X9nKTrq2vJhem4q-24" value="" style="shape=mxgraph.signs.transportation.airplane_3;html=1;pointerEvents=1;fillColor=#000000;strokeColor=none;verticalLabelPosition=bottom;verticalAlign=top;align=center;sketch=0;" vertex="1" parent="WIyWlLk6GJQsqaUBKTNV-1">
          <mxGeometry x="250.61" y="140" width="59.39" height="60" as="geometry" />
        </mxCell>
        <mxCell id="9C-q0X9nKTrq2vJhem4q-25" value="" style="shape=mxgraph.signs.transportation.car_4;html=1;pointerEvents=1;fillColor=#000000;strokeColor=none;verticalLabelPosition=bottom;verticalAlign=top;align=center;sketch=0;" vertex="1" parent="WIyWlLk6GJQsqaUBKTNV-1">
          <mxGeometry x="219.99999999999997" y="110" width="45.58" height="40" as="geometry" />
        </mxCell>
        <mxCell id="9C-q0X9nKTrq2vJhem4q-26" value="" style="shape=mxgraph.signs.transportation.motorcycle;html=1;pointerEvents=1;fillColor=#000000;strokeColor=none;verticalLabelPosition=bottom;verticalAlign=top;align=center;sketch=0;" vertex="1" parent="WIyWlLk6GJQsqaUBKTNV-1">
          <mxGeometry x="190.61" y="167.5" width="48.26" height="32.5" as="geometry" />
        </mxCell>
        <mxCell id="9C-q0X9nKTrq2vJhem4q-27" value="" style="endArrow=classic;html=1;rounded=0;entryX=1;entryY=0.5;entryDx=0;entryDy=0;exitX=0.5;exitY=0;exitDx=0;exitDy=0;edgeStyle=orthogonalEdgeStyle;" edge="1" parent="WIyWlLk6GJQsqaUBKTNV-1" source="9C-q0X9nKTrq2vJhem4q-1" target="WIyWlLk6GJQsqaUBKTNV-3">
          <mxGeometry width="50" height="50" relative="1" as="geometry">
            <mxPoint x="380" y="370" as="sourcePoint" />
            <mxPoint x="430" y="320" as="targetPoint" />
          </mxGeometry>
        </mxCell>
        <mxCell id="9C-q0X9nKTrq2vJhem4q-38" value="" style="edgeStyle=orthogonalEdgeStyle;rounded=0;orthogonalLoop=1;jettySize=auto;html=1;" edge="1" parent="WIyWlLk6GJQsqaUBKTNV-1" source="9C-q0X9nKTrq2vJhem4q-35" target="9C-q0X9nKTrq2vJhem4q-37">
          <mxGeometry relative="1" as="geometry" />
        </mxCell>
        <mxCell id="9C-q0X9nKTrq2vJhem4q-35" value="User" style="shape=mxgraph.signs.tech.computer;html=1;pointerEvents=1;fillColor=#000000;strokeColor=none;verticalLabelPosition=bottom;verticalAlign=top;align=center;sketch=0;" vertex="1" parent="WIyWlLk6GJQsqaUBKTNV-1">
          <mxGeometry x="220" y="375.5" width="49" height="49" as="geometry" />
        </mxCell>
        <mxCell id="9C-q0X9nKTrq2vJhem4q-39" value="" style="edgeStyle=orthogonalEdgeStyle;rounded=0;orthogonalLoop=1;jettySize=auto;html=1;" edge="1" parent="WIyWlLk6GJQsqaUBKTNV-1" source="9C-q0X9nKTrq2vJhem4q-37" target="9C-q0X9nKTrq2vJhem4q-1">
          <mxGeometry relative="1" as="geometry" />
        </mxCell>
        <mxCell id="9C-q0X9nKTrq2vJhem4q-37" value="GUI" style="rhombus;whiteSpace=wrap;html=1;" vertex="1" parent="WIyWlLk6GJQsqaUBKTNV-1">
          <mxGeometry x="340" y="360" width="80" height="80" as="geometry" />
        </mxCell>
        <mxCell id="9C-q0X9nKTrq2vJhem4q-44" value="Has?" style="text;strokeColor=none;align=center;fillColor=none;html=1;verticalAlign=middle;whiteSpace=wrap;rounded=0;" vertex="1" parent="WIyWlLk6GJQsqaUBKTNV-1">
          <mxGeometry x="330" y="130" width="60" height="30" as="geometry" />
        </mxCell>
        <mxCell id="9C-q0X9nKTrq2vJhem4q-45" value="Vehicles" style="text;strokeColor=none;align=center;fillColor=none;html=1;verticalAlign=middle;whiteSpace=wrap;rounded=0;" vertex="1" parent="WIyWlLk6GJQsqaUBKTNV-1">
          <mxGeometry x="212.79000000000002" y="70" width="60" height="30" as="geometry" />
        </mxCell>
      </root>
    </mxGraphModel>
  </diagram>
</mxfile>
